<svg width="82" height="218" viewBox="0 0 82 218" fill="none" xmlns="http://www.w3.org/2000/svg">
<rect width="82" height="218" rx="16" fill="#F2F2F2"/>
<path d="M41 39.9291C36.5559 39.9291 32.9291 43.5559 32.9291 48C32.9291 52.4441 36.5559 56.0709 41 56.0709C45.4442 56.0709 49.0709 52.4441 49.0709 48C49.0709 43.5559 45.4442 39.9291 41 39.9291ZM65.2067 48C65.2067 44.6578 65.2369 41.3459 65.0493 38.0098C64.8616 34.1348 63.9776 30.6957 61.144 27.8621C58.3043 25.0225 54.8713 24.1445 50.9963 23.9568C47.6541 23.7691 44.3422 23.7994 41.0061 23.7994C37.6639 23.7994 34.352 23.7691 31.0159 23.9568C27.1409 24.1445 23.7018 25.0285 20.8682 27.8621C18.0286 30.7018 17.1506 34.1348 16.9629 38.0098C16.7752 41.3519 16.8055 44.6639 16.8055 48C16.8055 51.3361 16.7752 54.6541 16.9629 57.9902C17.1506 61.8652 18.0346 65.3043 20.8682 68.1379C23.7079 70.9775 27.1409 71.8555 31.0159 72.0432C34.358 72.2309 37.67 72.2006 41.0061 72.2006C44.3483 72.2006 47.6602 72.2309 50.9963 72.0432C54.8713 71.8555 58.3104 70.9715 61.144 68.1379C63.9836 65.2982 64.8616 61.8652 65.0493 57.9902C65.243 54.6541 65.2067 51.3422 65.2067 48ZM41 60.4182C34.128 60.4182 28.5819 54.8721 28.5819 48C28.5819 41.1279 34.128 35.5818 41 35.5818C47.8721 35.5818 53.4182 41.1279 53.4182 48C53.4182 54.8721 47.8721 60.4182 41 60.4182ZM53.9268 37.9734C52.3223 37.9734 51.0266 36.6777 51.0266 35.0732C51.0266 33.4687 52.3223 32.173 53.9268 32.173C55.5313 32.173 56.827 33.4687 56.827 35.0732C56.8275 35.4542 56.7528 35.8316 56.6072 36.1837C56.4616 36.5357 56.248 36.8556 55.9786 37.1251C55.7092 37.3945 55.3893 37.6081 55.0372 37.7536C54.6851 37.8992 54.3078 37.9739 53.9268 37.9734Z" fill="black"/>
<g clip-path="url(#clip0_202_65)">
<path d="M24.1297 84C19.0722 84 15 88.0722 15 93.1297V124.87C15 129.928 19.0722 134 24.1297 134H41.3328V114.453H36.1641V107.416H41.3328V101.403C41.3328 96.6794 44.3868 92.3422 51.4219 92.3422C54.2703 92.3422 56.3766 92.6157 56.3766 92.6157L56.2109 99.1876C56.2109 99.1876 54.0628 99.1673 51.7188 99.1673C49.1818 99.1673 48.775 100.336 48.775 102.277V107.416H56.4125L56.0797 114.453H48.775V134H55.8703C60.9277 134 65 129.928 65 124.87V93.1298C65 88.0723 60.9277 84.0001 55.8703 84.0001H24.1297L24.1297 84Z" fill="black"/>
</g>
<defs>
<clipPath id="clip0_202_65">
<rect width="50" height="50" fill="white" transform="translate(15 84)"/>
</clipPath>
</defs>
</svg>
